<svg id="Layer_1" data-name="Layer 1" xmlns="http://www.w3.org/2000/svg" viewBox="0 0 244.44 244.44"><defs><style>.cls-1,.cls-4,.cls-5{fill:#202944;}.cls-2{fill:#fff;}.cls-3{fill:#8600c8;}.cls-4,.cls-5{stroke:#202944;stroke-miterlimit:10;}.cls-4{stroke-width:1.83px;}.cls-5{stroke-width:0.92px;}</style></defs><path class="cls-1" d="M125.22,27.44A97.78,97.78,0,1,0,223,125.22,97.78,97.78,0,0,0,125.22,27.44Zm0,171.57a73.92,73.92,0,1,1,73.92-73.92A73.93,73.93,0,0,1,125.22,199Z" transform="translate(-3 -3)"/><circle class="cls-2" cx="122.22" cy="122.22" r="83.6"/><path class="cls-3" d="M125.22,3A122.22,122.22,0,1,0,247.44,125.22,122.22,122.22,0,0,0,125.22,3Zm0,214.46a92.4,92.4,0,1,1,92.4-92.4A92.4,92.4,0,0,1,125.22,217.46Z" transform="translate(-3 -3)"/><polygon class="cls-4" points="74.4 112.82 76.67 112.82 76.67 102.94 105.02 102.94 105.02 141.5 76.67 141.5 76.67 131.63 74.4 131.63 74.4 143.77 107.28 143.77 107.28 100.67 74.4 100.67 74.4 112.82"/><polygon class="cls-5" points="94.81 122.22 85.19 131.84 83.58 130.24 90.47 123.36 66.46 123.36 66.46 121.09 90.47 121.09 83.58 114.2 85.19 112.6 94.81 122.22"/><polygon class="cls-4" points="122.69 81.87 124.96 81.87 124.96 71.99 153.31 71.99 153.31 110.55 124.96 110.55 124.96 100.67 122.69 100.67 122.69 112.82 155.58 112.82 155.58 69.72 122.69 69.72 122.69 81.87"/><polygon class="cls-5" points="143.1 91.27 133.48 100.89 131.88 99.29 138.76 92.4 114.75 92.4 114.75 90.13 138.76 90.13 131.88 83.24 133.48 81.64 143.1 91.27"/><polygon class="cls-4" points="122.69 143.77 124.96 143.77 124.96 133.89 153.31 133.89 153.31 172.45 124.96 172.45 124.96 162.58 122.69 162.58 122.69 174.72 155.58 174.72 155.58 131.63 122.69 131.63 122.69 143.77"/><polygon class="cls-5" points="143.1 153.17 133.48 162.79 131.88 161.19 138.76 154.31 114.75 154.31 114.75 152.04 138.76 152.04 131.88 145.15 133.48 143.55 143.1 153.17"/></svg>