<svg id="Layer_1" data-name="Layer 1" xmlns="http://www.w3.org/2000/svg" viewBox="0 0 460.64 460.64"><defs><style>.cls-1{fill:#202944;}.cls-2{fill:#fff;}.cls-3{fill:#28d128;}</style></defs><path class="cls-1" d="M327.42,124A184.25,184.25,0,0,0,143.17,308.25c0,101.76,82.49,184.26,184.25,184.26S511.68,410,511.68,308.25,429.19,124,327.42,124Zm0,323.3A139.3,139.3,0,1,1,466.72,308,139.29,139.29,0,0,1,327.42,447.3Z" transform="translate(-97.1 -77.93)"/><circle class="cls-2" cx="230.32" cy="230.01" r="157.54"/><path class="cls-3" d="M327.42,77.93C200.22,77.93,97.1,181.05,97.1,308.25S200.22,538.57,327.42,538.57,557.74,435.46,557.74,308.25,454.63,77.93,327.42,77.93Zm0,404.14A174.12,174.12,0,1,1,501.55,308,174.12,174.12,0,0,1,327.42,482.07Z" transform="translate(-97.1 -77.93)"/><path class="cls-1" d="M326.13,255.08a30.71,30.71,0,1,0,30.7,30.7A30.7,30.7,0,0,0,326.13,255.08Zm0,55.27a24.57,24.57,0,1,1,24.57-24.57A24.57,24.57,0,0,1,326.12,310.35Z" transform="translate(-97.1 -77.93)"/><path class="cls-1" d="M443.64,414.37,374.9,345.83A88.08,88.08,0,1,0,362,359.26l68.44,67.86A158.62,158.62,0,0,0,443.64,414.37Zm-138.46-41.8a81,81,0,1,1,81-81A81,81,0,0,1,305.18,372.57Z" transform="translate(-97.1 -77.93)"/></svg>