<svg id="Layer_1" data-name="Layer 1" xmlns="http://www.w3.org/2000/svg" viewBox="0 0 469.45 469.45"><defs><style>.cls-1{fill:#202944;}.cls-2{fill:#47a7ed;}.cls-3{fill:#fff;}</style></defs><path class="cls-1" d="M333.4,139.46c-102.52,0-185.63,83.11-185.63,185.63S230.88,510.73,333.4,510.73A185.64,185.64,0,0,0,519,325.09C519,222.57,435.93,139.46,333.4,139.46Zm0,325.73A140.34,140.34,0,1,1,473.74,324.85,140.34,140.34,0,0,1,333.4,465.19Z" transform="translate(-98.61 -87.69)"/><path class="cls-2" d="M333.34,87.69C203.7,87.69,98.61,192.78,98.61,322.41S203.7,557.14,333.34,557.14,568.06,452.05,568.06,322.41,463,87.69,333.34,87.69Zm0,411.86A177.45,177.45,0,1,1,510.79,322.1,177.46,177.46,0,0,1,333.34,499.55Z" transform="translate(-98.61 -87.69)"/><path class="cls-3" d="M333.05,481.72c88.16,0,160-71.82,160-160s-71.82-160-160-160-160,71.82-160,160,71.82,160,160,160Z" transform="translate(-98.61 -87.69)"/><path class="cls-1" d="M333.05,357.55a35.82,35.82,0,1,1,35.81-35.81,36,36,0,0,1-35.81,35.81Z" transform="translate(-98.61 -87.69)"/><path class="cls-1" d="M424.13,362.22a8.57,8.57,0,1,0,8.57,8.56,8.63,8.63,0,0,0-8.57-8.56Zm0,27.83a19.27,19.27,0,1,1,19.27-19.27,19.43,19.43,0,0,1-19.27,19.27Z" transform="translate(-98.61 -87.69)"/><path class="cls-1" d="M337.91,219.56a102.14,102.14,0,0,0-72.2,29.19,98.5,98.5,0,0,0-30,70.85,97.24,97.24,0,0,0,30,70.64,102.82,102.82,0,0,0,72.2,29.2c16.35,0,29.39-4.67,43.79-12.07,12.46-6.23,21.8-17.32,30.75-27.83C409,376,434.06,357,435.23,357.16c3.11-9.73,5.45-21,4.86-37.56-1-27.84-10.51-51.78-30-70.65a103,103,0,0,0-72.21-29.39Zm-4.86,212.53a110.09,110.09,0,1,1,103.34-71.43,4.81,4.81,0,0,1-3.31,3.12,5.18,5.18,0,0,1-4.47-.39,9,9,0,0,0-4.48-1.17,8.63,8.63,0,0,0-8.56,8.56,8.89,8.89,0,0,0,4.86,7.79,5.77,5.77,0,0,1,2.92,3.5,6,6,0,0,1-.78,4.48,110.22,110.22,0,0,1-89.52,45.54Z" transform="translate(-98.61 -87.69)"/><path class="cls-1" d="M424.33,357.55a13.82,13.82,0,1,1-13.82,13.82,13.82,13.82,0,0,1,13.82-13.82Z" transform="translate(-98.61 -87.69)"/></svg>