<?xml version="1.0" encoding="utf-8" ?>
<svg xmlns="http://www.w3.org/2000/svg" xmlns:xlink="http://www.w3.org/1999/xlink" width="24" height="24">
	<path fill="#00141A" transform="translate(3 3)" d="M15 0C16.656855 0 18 1.3431457 18 3C18 4.6568542 16.656855 6 15 6C13.343145 6 12 4.6568542 12 3C12 2.7138751 12.040056 2.4371059 12.114866 2.1749938C11.1501 1.7325258 10.094032 1.5 9 1.5C4.8579636 1.5 1.5 4.8579636 1.5 9C1.5 13.142036 4.8579636 16.5 9 16.5C13.142036 16.5 16.5 13.142036 16.5 9C16.5 8.5393496 16.458012 8.0839596 16.375252 7.6363635L17.850248 7.3636365C17.949594 7.9009309 18 8.4476023 18 9C18 13.970464 13.970464 18 9 18C4.0295362 18 0 13.970464 0 9C0 4.0295362 4.0295362 0 9 0C10.363605 0 11.681615 0.30243671 12.879519 0.8758418C13.422465 0.33538681 14.172066 0 15 0ZM9 4.5C11.485281 4.5 13.5 6.5147185 13.5 9C13.5 11.485281 11.485281 13.5 9 13.5C6.5147185 13.5 4.5 11.485281 4.5 9C4.5 6.5147185 6.5147185 4.5 9 4.5ZM9 6C7.3431458 6 6 7.3431458 6 9C6 10.656855 7.3431458 12 9 12C10.656855 12 12 10.656855 12 9C12 7.3431458 10.656855 6 9 6ZM9 8.25C9.4142132 8.25 9.75 8.5857868 9.75 9C9.75 9.4142132 9.4142132 9.75 9 9.75C8.5857868 9.75 8.25 9.4142132 8.25 9C8.25 8.5857868 8.5857868 8.25 9 8.25ZM15 1.5C14.171573 1.5 13.5 2.1715729 13.5 3C13.5 3.8284271 14.171573 4.5 15 4.5C15.828427 4.5 16.5 3.8284271 16.5 3C16.5 2.1715729 15.828427 1.5 15 1.5Z"/>
</svg>
