<svg id="Layer_1" data-name="Layer 1" xmlns="http://www.w3.org/2000/svg" viewBox="0 0 471.7 471.7"><defs><style>.cls-1{fill:#202944;}.cls-2{fill:#fff;}.cls-3{fill:#f7a600;}</style></defs><path class="cls-1" d="M333.34,132.61c-104.21,0-188.69,84.47-188.69,188.68S229.13,510,333.34,510,522,425.49,522,321.29,437.54,132.61,333.34,132.61Zm0,331.07A142.65,142.65,0,1,1,476,321,142.65,142.65,0,0,1,333.34,463.68Z" transform="translate(-97.48 -85.44)"/><circle class="cls-2" cx="235.85" cy="235.54" r="161.32"/><path class="cls-3" d="M333.34,85.44C203.08,85.44,97.48,191,97.48,321.29s105.6,235.85,235.86,235.85,235.85-105.6,235.85-235.85S463.59,85.44,333.34,85.44Zm0,413.84A178.31,178.31,0,1,1,511.64,321,178.31,178.31,0,0,1,333.34,499.28Z" transform="translate(-97.48 -85.44)"/><polygon class="cls-1" points="284.63 178.9 231.9 178.9 231.9 189.18 284.63 189.18 284.63 178.9 284.63 178.9 284.63 178.9"/><polygon class="cls-1" points="279.49 178.9 279.49 238.03 289.77 238.03 289.77 178.9 279.49 178.9 279.49 178.9 279.49 178.9"/><polygon class="cls-1" points="300.61 227.5 284.63 243.48 268.66 227.5 300.61 227.5 300.61 227.5 300.61 227.5"/><path class="cls-1" d="M235.57,225.38v88.2h97.7v-88.2Zm86.33,77.75H247V237.7H321.9Z" transform="translate(-97.48 -85.44)"/><path class="cls-1" d="M333.29,329.33v88.2H431v-88.2Zm86.32,76.81H344.68V340.72h74.93Z" transform="translate(-97.48 -85.44)"/><polygon class="cls-1" points="279.52 238.37 289.8 238.37 289.8 179.24 279.52 179.24 279.52 238.37 279.52 238.37"/><polygon class="cls-1" points="300.64 227.84 284.66 243.82 268.69 227.84 300.64 227.84 300.64 227.84"/><polygon class="cls-1" points="243.51 282.85 173.55 282.85 173.55 293.13 243.51 293.13 243.51 282.85 243.51 282.85"/><polygon class="cls-1" points="177.66 304.77 162.49 287.99 177.66 271.22 177.66 304.77 177.66 304.77"/></svg>